<svg width="485" height="310" xmlns="http://www.w3.org/2000/svg" xmlns:xlink="http://www.w3.org/1999/xlink" xml:space="preserve" overflow="hidden"><defs><filter id="fx0" x="-10%" y="-10%" width="120%" height="120%" filterUnits="userSpaceOnUse" primitiveUnits="userSpaceOnUse"><feComponentTransfer color-interpolation-filters="sRGB"><feFuncR type="discrete" tableValues="0.431373 0.431373"/><feFuncG type="discrete" tableValues="0.454902 0.454902"/><feFuncB type="discrete" tableValues="0.478431 0.478431"/><feFuncA type="linear" slope="0.431373" intercept="0"/></feComponentTransfer><feGaussianBlur stdDeviation="1.3704 1.3704"/></filter><filter id="fx1" x="-10%" y="-10%" width="120%" height="120%" filterUnits="userSpaceOnUse" primitiveUnits="userSpaceOnUse"><feComponentTransfer color-interpolation-filters="sRGB"><feFuncR type="discrete" tableValues="0.431373 0.431373"/><feFuncG type="discrete" tableValues="0.454902 0.454902"/><feFuncB type="discrete" tableValues="0.478431 0.478431"/><feFuncA type="linear" slope="0.431373" intercept="0"/></feComponentTransfer><feGaussianBlur stdDeviation="1.3704 1.3704"/></filter><clipPath id="clip2"><rect x="2699" y="1574" width="485" height="310"/></clipPath><clipPath id="clip3"><rect x="35" y="29" width="79" height="53"/></clipPath><clipPath id="clip4"><rect x="33" y="29" width="421" height="53"/></clipPath></defs><g clip-path="url(#clip2)" transform="translate(-2699 -1574)"><path d="M2794.33 1689.5C2792.78 1689.5 2791.5 1690.78 2791.5 1692.33 2791.5 1693.88 2792.78 1695.15 2794.33 1695.15 2816.12 1695.15 2833.85 1712.88 2833.85 1734.67 2833.85 1736.22 2835.12 1737.5 2836.67 1737.5 2838.22 1737.5 2839.5 1736.22 2839.5 1734.67 2839.5 1709.78 2819.22 1689.5 2794.33 1689.5Z" stroke="#00C8E6" stroke-width="3.4375" stroke-miterlimit="8" fill="#00C8E6" fill-rule="evenodd"/><path d="M2794.3 1670.5C2792.76 1670.5 2791.5 1671.76 2791.5 1673.3 2791.5 1674.83 2792.76 1676.09 2794.3 1676.09 2826.61 1676.09 2852.91 1702.39 2852.91 1734.7 2852.91 1736.24 2854.17 1737.5 2855.7 1737.5 2857.24 1737.5 2858.5 1736.24 2858.5 1734.7 2858.5 1699.3 2829.7 1670.5 2794.3 1670.5Z" stroke="#00C8E6" stroke-width="3.4375" stroke-miterlimit="8" fill="#00C8E6" fill-rule="evenodd"/><path d="M2794.31 1650.5C2792.77 1650.5 2791.5 1651.77 2791.5 1653.31 2791.5 1654.85 2792.77 1656.12 2794.31 1656.12 2837.64 1656.12 2872.88 1691.36 2872.88 1734.69 2872.88 1736.23 2874.15 1737.5 2875.69 1737.5 2877.23 1737.5 2878.5 1736.23 2878.5 1734.69 2878.5 1688.27 2840.73 1650.5 2794.31 1650.5Z" stroke="#00C8E6" stroke-width="3.4375" stroke-miterlimit="8" fill="#00C8E6" fill-rule="evenodd"/><g clip-path="url(#clip3)" filter="url(#fx0)" transform="translate(2702 1678)"><g><path d="M27.3657-29.729 22.5586-29.353C22.1289-31.2508 21.5202-32.6294 20.7324-33.4888 19.4255-34.8673 17.8141-35.5566 15.8984-35.5566 14.3587-35.5566 13.007-35.1269 11.8433-34.2676 10.3215-33.1575 9.12191-31.5373 8.24463-29.4067 7.36735-27.2762 6.91081-24.2415 6.875-20.3027 8.03874-22.0752 9.46208-23.3911 11.145-24.2505 12.828-25.1099 14.5915-25.5395 16.4355-25.5395 19.6582-25.5395 22.4019-24.3534 24.6667-21.9812 26.9316-19.609 28.064-16.543 28.064-12.7832 28.064-10.3125 27.5313-8.01636 26.4661-5.89477 25.4008-3.77319 23.9372-2.14844 22.0752-1.02051 20.2132 0.107422 18.1006 0.671387 15.7373 0.671387 11.709 0.671387 8.42366-0.81014 5.88135-3.77319 3.33903-6.73625 2.06787-11.6195 2.06787-18.4228 2.06787-26.0319 3.47331-31.5641 6.28418-35.0195 8.73698-38.0273 12.0402-39.5312 16.1938-39.5312 19.2912-39.5312 21.829-38.6629 23.8074-36.9263 25.7857-35.1896 26.9718-32.7905 27.3657-29.729ZM7.62695-12.7563C7.62695-11.0913 7.98055-9.49788 8.68774-7.97607 9.39494-6.45426 10.3841-5.295 11.6553-4.49829 12.9264-3.70158 14.2603-3.30322 15.6567-3.30322 17.6978-3.30322 19.4523-4.12679 20.9204-5.77393 22.3885-7.42106 23.1226-9.65902 23.1226-12.4878 23.1226-15.2091 22.3975-17.3531 20.9473-18.9197 19.4971-20.4862 17.6709-21.2695 15.4687-21.2695 13.2845-21.2695 11.4315-20.4862 9.90967-18.9197 8.38786-17.3531 7.62695-15.2987 7.62695-12.7563ZM53.0306-15.4419 53.0306-20.061 69.7078-20.0879 69.7078-5.47852C67.1476-3.4375 64.5068-1.90226 61.7855-0.872803 59.0641 0.156657 56.2711 0.671387 53.4066 0.671387 49.5394 0.671387 46.0258-0.156657 42.8658-1.81274 39.7058-3.46883 37.3201-5.86344 35.7088-8.99658 34.0975-12.1297 33.2918-15.6299 33.2918-19.4971 33.2918-23.3284 34.093-26.9047 35.6954-30.2258 37.2978-33.547 39.6029-36.0132 42.6107-37.6245 45.6185-39.2358 49.0828-40.0415 53.0037-40.0415 55.8504-40.0415 58.4241-39.5805 60.7247-38.6584 63.0253-37.7364 64.8291-36.4518 66.1361-34.8047 67.443-33.1575 68.4367-31.0091 69.117-28.3594L64.4173-27.0703C63.8265-29.0755 63.0924-30.651 62.2152-31.7969 61.3379-32.9427 60.0846-33.8603 58.4554-34.5496 56.8262-35.2388 55.0179-35.5835 53.0306-35.5835 50.6494-35.5835 48.5905-35.2209 46.8538-34.4958 45.1172-33.7707 43.7162-32.8174 42.651-31.6357 41.5857-30.4541 40.7576-29.1561 40.1668-27.7417 39.1642-25.3068 38.6629-22.666 38.6629-19.8193 38.6629-16.3102 39.2672-13.374 40.4757-11.0107 41.6842-8.64746 43.4432-6.8929 45.7528-5.74707 48.0623-4.60124 50.5151-4.02832 53.1112-4.02832 55.367-4.02832 57.5692-4.46248 59.7176-5.33081 61.866-6.19914 63.4953-7.12565 64.6053-8.11035L64.6053-15.4419Z" fill="#00C8E6" transform="matrix(1 0 0 1 38.7573 75)"/></g></g><text fill="#00C8E6" font-family="Arial,Arial_MSFontService,sans-serif" font-weight="400" font-size="55" transform="matrix(1 0 0 1 2740.76 1750)">6G</text><g><g><g><path d="M3076.87 1735.67 3045.19 1735.67C3041.86 1735.67 3039.13 1732.97 3039.13 1729.61L3039.13 1705.22C3039.13 1701.89 3041.83 1699.16 3045.19 1699.16L3055.87 1699.16C3057.52 1699.16 3058.87 1700.51 3058.87 1702.16L3058.87 1706.72C3058.87 1707.38 3059.95 1708.28 3061.03 1708.28 3062.11 1708.28 3063.19 1707.38 3063.19 1706.72L3063.19 1702.16C3063.19 1700.51 3064.54 1699.16 3066.19 1699.16L3076.87 1699.16C3080.2 1699.16 3082.93 1701.86 3082.93 1705.22L3082.93 1729.61C3082.93 1732.94 3080.23 1735.67 3076.87 1735.67ZM3045.19 1705.19 3045.13 1729.64 3076.87 1729.7 3076.93 1705.25 3069.22 1705.25C3069.22 1705.25 3069.22 1706.78 3069.22 1706.78 3069.22 1710.8 3065.41 1714.34 3061.06 1714.34 3056.71 1714.34 3052.9 1710.8 3052.9 1706.78L3052.9 1705.22 3045.22 1705.22Z" stroke="#00C8E6" stroke-width="3" fill="#070300"/><path d="M3076.87 1689.38 3045.19 1689.38C3041.86 1689.38 3039.13 1686.68 3039.13 1683.32L3039.13 1658.93C3039.13 1655.6 3041.83 1652.87 3045.19 1652.87L3055.87 1652.87C3057.52 1652.87 3058.87 1654.22 3058.87 1655.87L3058.87 1660.43C3058.87 1661.09 3059.98 1661.99 3061.03 1661.99 3062.08 1661.99 3063.19 1661.06 3063.19 1660.43L3063.19 1655.87C3063.19 1654.22 3064.54 1652.87 3066.19 1652.87L3076.87 1652.87C3080.2 1652.87 3082.93 1655.57 3082.93 1658.93L3082.93 1683.32C3082.93 1686.65 3080.23 1689.38 3076.87 1689.38ZM3045.19 1658.9 3045.13 1683.35 3076.87 1683.41 3076.93 1658.96 3069.22 1658.96C3069.22 1658.96 3069.22 1660.49 3069.22 1660.49 3069.22 1664.51 3065.41 1668.05 3061.06 1668.05 3056.71 1668.05 3052.9 1664.51 3052.9 1660.49L3052.9 1658.93 3045.22 1658.93Z" stroke="#00C8E6" stroke-width="3" fill="#070300"/><path d="M3084.82 1743.29 3028.66 1743.29 3028.66 1656.29C3028.66 1654.64 3027.31 1653.29 3025.66 1653.29 3024.01 1653.29 3022.66 1654.64 3022.66 1656.29L3022.66 1725.62C3018.85 1721.72 3013.54 1719.29 3007.66 1719.29L3003.76 1719.29 2982.64 1661.18C2980.93 1656.47 2976.4 1653.29 2971.36 1653.29L2947.66 1653.29C2942.71 1653.29 2938.66 1657.34 2938.66 1662.29L2938.66 1695.29 2923.66 1695.29C2918.71 1695.29 2914.66 1699.34 2914.66 1704.29L2914.66 1743.29C2914.66 1753.22 2922.73 1761.29 2932.66 1761.29 2937.97 1761.29 2942.74 1758.95 2946.04 1755.29L2992.99 1755.29C2996.77 1759.01 3001.96 1761.29 3007.66 1761.29 3016 1761.29 3023.23 1756.37 3026.59 1749.29L3084.82 1749.29C3086.47 1749.29 3087.82 1747.94 3087.82 1746.29 3087.82 1744.64 3086.47 1743.29 3084.82 1743.29ZM2947.63 1659.29 2971.33 1659.29C2973.85 1659.29 2976.1 1660.88 2976.97 1663.25L2997.34 1719.29 2968.45 1719.29C2967.07 1706.81 2957.11 1696.85 2944.63 1695.47L2944.63 1662.29C2944.63 1660.64 2945.98 1659.29 2947.63 1659.29ZM2932.63 1755.29C2926 1755.29 2920.63 1749.92 2920.63 1743.29 2920.63 1736.66 2926 1731.29 2932.63 1731.29 2939.26 1731.29 2944.63 1736.66 2944.63 1743.29 2944.63 1749.92 2939.26 1755.29 2932.63 1755.29ZM2932.63 1725.29C2928.01 1725.29 2923.81 1727.06 2920.63 1729.91L2920.63 1713.29 2935.63 1713.29C2937.28 1713.29 2938.63 1711.94 2938.63 1710.29 2938.63 1708.64 2937.28 1707.29 2935.63 1707.29L2920.63 1707.29 2920.63 1704.29C2920.63 1702.64 2921.98 1701.29 2923.63 1701.29L2941.63 1701.29C2953.21 1701.29 2962.63 1710.71 2962.63 1722.29 2962.63 1723.94 2963.98 1725.29 2965.63 1725.29L2992.96 1725.29C2989.06 1729.1 2986.63 1734.41 2986.63 1740.29 2986.63 1743.5 2987.38 1746.56 2988.7 1749.29L2949.58 1749.29C2950.24 1747.4 2950.63 1745.39 2950.63 1743.29 2950.63 1733.36 2942.56 1725.29 2932.63 1725.29ZM3007.63 1755.29C2999.35 1755.29 2992.63 1748.57 2992.63 1740.29 2992.63 1732.01 2999.35 1725.29 3007.63 1725.29 3015.91 1725.29 3022.63 1732.01 3022.63 1740.29 3022.63 1748.57 3015.91 1755.29 3007.63 1755.29Z" stroke="#00C8E6" stroke-width="3" fill="#070300"/></g></g></g><g clip-path="url(#clip4)" filter="url(#fx1)" transform="translate(2698 1758)"><g><path d="M14.2603 0 14.2603-34.7241 1.28906-34.7241 1.28906-39.3701 32.4951-39.3701 32.4951-34.7241 19.4702-34.7241 19.4702 0ZM38.1527 0 38.1527-39.3701 66.6195-39.3701 66.6195-34.7241 43.3626-34.7241 43.3626-22.666 65.1424-22.666 65.1424-18.0469 43.3626-18.0469 43.3626-4.646 67.5325-4.646 67.5325 0ZM74.7925 0 74.7925-39.3701 92.2485-39.3701C95.7576-39.3701 98.4253-39.0165 100.251-38.3093 102.078-37.6021 103.537-36.3533 104.629-34.563 105.721-32.7726 106.267-30.7943 106.267-28.6279 106.267-25.835 105.363-23.4806 103.555-21.5649 101.746-19.6493 98.9534-18.4318 95.1758-17.9126 96.5544-17.2502 97.6017-16.5967 98.3179-15.9521 99.8397-14.5557 101.281-12.8101 102.642-10.7153L109.49 0 102.937 0 97.7271-8.19092C96.2052-10.5542 94.952-12.3625 93.9673-13.6157 92.9826-14.869 92.1008-15.7463 91.322-16.2476 90.5432-16.7489 89.751-17.098 88.9453-17.2949 88.3545-17.4202 87.3877-17.4829 86.0449-17.4829L80.0024-17.4829 80.0024 0ZM80.0024-21.9946 91.2012-21.9946C93.5824-21.9946 95.4443-22.2408 96.7871-22.7332 98.1299-23.2255 99.1504-24.0133 99.8486-25.0964 100.547-26.1796 100.896-27.3568 100.896-28.6279 100.896-30.4899 100.22-32.0207 98.8684-33.2202 97.5167-34.4198 95.3817-35.0195 92.4634-35.0195L80.0024-35.0195ZM109.919 0 125.039-39.3701 130.652-39.3701 146.765 0 140.83 0 136.238-11.9238 119.775-11.9238 115.452 0ZM121.279-16.167 134.626-16.167 130.518-27.0703C129.264-30.3825 128.333-33.1038 127.725-35.2344 127.223-32.71 126.516-30.2034 125.603-27.7148ZM151.178 0 151.178-39.3701 177.738-39.3701 177.738-34.7241 156.388-34.7241 156.388-22.5317 174.865-22.5317 174.865-17.8857 156.388-17.8857 156.388 0ZM180.388 0 195.508-39.3701 201.121-39.3701 217.234 0 211.299 0 206.707-11.9238 190.244-11.9238 185.92 0ZM191.748-16.167 205.095-16.167 200.986-27.0703C199.733-30.3825 198.802-33.1038 198.193-35.2344 197.692-32.71 196.985-30.2034 196.072-27.7148ZM249.469-13.8037 254.679-12.4878C253.587-8.20882 251.622-4.94588 248.785-2.69897 245.947-0.452067 242.478 0.671387 238.378 0.671387 234.135 0.671387 230.684-0.192464 228.025-1.92017 225.367-3.64787 223.343-6.1499 221.956-9.42627 220.568-12.7026 219.875-16.2207 219.875-19.9805 219.875-24.0804 220.658-27.6567 222.225-30.7092 223.791-33.7618 226.02-36.0803 228.912-37.6648 231.803-39.2493 234.985-40.0415 238.459-40.0415 242.397-40.0415 245.71-39.0389 248.395-37.0337 251.081-35.0285 252.952-32.2087 254.008-28.5742L248.879-27.3657C247.965-30.2303 246.641-32.3161 244.904-33.623 243.167-34.93 240.983-35.5835 238.351-35.5835 235.326-35.5835 232.797-34.8584 230.765-33.4082 228.732-31.958 227.305-30.011 226.481-27.5671 225.658-25.1233 225.246-22.6033 225.246-20.0073 225.246-16.6593 225.734-13.7366 226.709-11.239 227.685-8.74145 229.202-6.875 231.261-5.63965 233.32-4.4043 235.549-3.78662 237.948-3.78662 240.867-3.78662 243.337-4.62809 245.361-6.31103 247.384-7.99398 248.753-10.4915 249.469-13.8037ZM270.927 0 270.927-34.7241 257.956-34.7241 257.956-39.3701 289.162-39.3701 289.162-34.7241 276.137-34.7241 276.137 0ZM293.127-19.1748C293.127-25.7096 294.882-30.8256 298.391-34.5227 301.9-38.2198 306.43-40.0684 311.98-40.0684 315.614-40.0684 318.891-39.2 321.809-37.4634 324.727-35.7267 326.952-33.3053 328.483-30.199 330.013-27.0927 330.779-23.5701 330.779-19.6313 330.779-15.6388 329.973-12.0671 328.362-8.91601 326.75-5.76497 324.468-3.37931 321.514-1.75903 318.56-0.138753 315.373 0.671387 311.953 0.671387 308.247 0.671387 304.935-0.223796 302.017-2.01416 299.098-3.80452 296.887-6.24837 295.383-9.3457 293.879-12.443 293.127-15.7194 293.127-19.1748ZM298.499-19.0942C298.499-14.3498 299.774-10.6124 302.325-7.88208 304.877-5.15177 308.077-3.78662 311.926-3.78662 315.847-3.78662 319.074-5.1652 321.608-7.92236 324.141-10.6795 325.408-14.5915 325.408-19.6582 325.408-22.863 324.866-25.6604 323.783-28.0505 322.7-30.4407 321.115-32.2937 319.03-33.6096 316.944-34.9255 314.603-35.5835 312.007-35.5835 308.319-35.5835 305.145-34.3168 302.487-31.7834 299.828-29.2501 298.499-25.0203 298.499-19.0942ZM337.761 0 337.761-39.3701 355.217-39.3701C358.726-39.3701 361.394-39.0165 363.22-38.3093 365.046-37.6021 366.506-36.3533 367.598-34.563 368.69-32.7726 369.236-30.7943 369.236-28.6279 369.236-25.835 368.332-23.4806 366.523-21.5649 364.715-19.6493 361.922-18.4318 358.145-17.9126 359.523-17.2502 360.57-16.5967 361.287-15.9521 362.808-14.5557 364.25-12.8101 365.61-10.7153L372.458 0 365.906 0 360.696-8.19092C359.174-10.5542 357.921-12.3625 356.936-13.6157 355.951-14.869 355.07-15.7463 354.291-16.2476 353.512-16.7489 352.72-17.098 351.914-17.2949 351.323-17.4202 350.356-17.4829 349.014-17.4829L342.971-17.4829 342.971 0ZM342.971-21.9946 354.17-21.9946C356.551-21.9946 358.413-22.2408 359.756-22.7332 361.099-23.2255 362.119-24.0133 362.817-25.0964 363.516-26.1796 363.865-27.3568 363.865-28.6279 363.865-30.4899 363.189-32.0207 361.837-33.2202 360.485-34.4198 358.35-35.0195 355.432-35.0195L342.971-35.0195ZM388.303 0 388.303-16.6772 373.13-39.3701 379.468-39.3701 387.229-27.5C388.661-25.2799 389.995-23.0599 391.23-20.8398 392.412-22.8988 393.844-25.2173 395.527-27.7954L403.154-39.3701 409.224-39.3701 393.513-16.6772 393.513 0Z" fill="#00C8E6" transform="matrix(1 0 0 1 38.5901 76)"/></g></g><text fill="#00C8E6" font-family="Arial,Arial_MSFontService,sans-serif" font-weight="400" font-size="55" transform="matrix(1 0 0 1 2736.59 1831)">TERAFACTORY</text></g></svg>